<svg width="40" height="41" viewBox="0 0 40 41" fill="none" xmlns="http://www.w3.org/2000/svg">
<path d="M33.3333 12.4166H6.66665C4.8257 12.4166 3.33331 13.909 3.33331 15.75V32.4166C3.33331 34.2576 4.8257 35.75 6.66665 35.75H33.3333C35.1743 35.75 36.6666 34.2576 36.6666 32.4166V15.75C36.6666 13.909 35.1743 12.4166 33.3333 12.4166Z" stroke="white" stroke-width="2" stroke-linecap="round" stroke-linejoin="round"/>
<path d="M26.6666 35.75V9.08333C26.6666 8.19928 26.3155 7.35143 25.6903 6.72631C25.0652 6.10119 24.2174 5.75 23.3333 5.75H16.6666C15.7826 5.75 14.9347 6.10119 14.3096 6.72631C13.6845 7.35143 13.3333 8.19928 13.3333 9.08333V35.75" stroke="white" stroke-width="2" stroke-linecap="round" stroke-linejoin="round"/>
</svg>
