<svg width="40" height="41" viewBox="0 0 40 41" fill="none" xmlns="http://www.w3.org/2000/svg">
<path d="M15 37.4167C15.9205 37.4167 16.6666 36.6705 16.6666 35.75C16.6666 34.8296 15.9205 34.0834 15 34.0834C14.0795 34.0834 13.3333 34.8296 13.3333 35.75C13.3333 36.6705 14.0795 37.4167 15 37.4167Z" stroke="white" stroke-width="2" stroke-linecap="round" stroke-linejoin="round"/>
<path d="M33.3334 37.4167C34.2538 37.4167 35 36.6705 35 35.75C35 34.8296 34.2538 34.0834 33.3334 34.0834C32.4129 34.0834 31.6667 34.8296 31.6667 35.75C31.6667 36.6705 32.4129 37.4167 33.3334 37.4167Z" stroke="white" stroke-width="2" stroke-linecap="round" stroke-linejoin="round"/>
<path d="M1.66669 2.41663H8.33335L12.8 24.7333C12.9524 25.5006 13.3699 26.1899 13.9793 26.6805C14.5887 27.171 15.3512 27.4316 16.1334 27.4166H32.3334C33.1155 27.4316 33.878 27.171 34.4874 26.6805C35.0968 26.1899 35.5143 25.5006 35.6667 24.7333L38.3334 10.75H10" stroke="white" stroke-width="2" stroke-linecap="round" stroke-linejoin="round"/>
</svg>
