<svg width="30" height="27" viewBox="0 0 30 27" fill="none" xmlns="http://www.w3.org/2000/svg">
<path d="M27 4.5H9C7.89543 4.5 7 5.39543 7 6.5V18.5C7 19.6046 7.89543 20.5 9 20.5H27C28.1046 20.5 29 19.6046 29 18.5V6.5C29 5.39543 28.1046 4.5 27 4.5Z" stroke="black" stroke-width="2" stroke-linecap="round" stroke-linejoin="round"/>
<path d="M7 10.5H29" stroke="black" stroke-width="2" stroke-linecap="round" stroke-linejoin="round"/>
<rect y="12.5" width="14" height="14" rx="7" fill="#485AFF"/>
<path d="M7.00004 23.6666C9.30123 23.6666 11.1667 21.8012 11.1667 19.5C11.1667 17.1988 9.30123 15.3333 7.00004 15.3333C4.69885 15.3333 2.83337 17.1988 2.83337 19.5C2.83337 21.8012 4.69885 23.6666 7.00004 23.6666Z" stroke="#EBEBEB" stroke-linecap="round" stroke-linejoin="round"/>
<path d="M7 17V19.5L8.66667 20.3333" stroke="#EBEBEB" stroke-linecap="round" stroke-linejoin="round"/>
</svg>
