<svg width="40" height="41" viewBox="0 0 40 41" fill="none" xmlns="http://www.w3.org/2000/svg">
<path d="M33.3334 20.25V36.9167H6.66669V20.25" stroke="white" stroke-width="2" stroke-linecap="round" stroke-linejoin="round"/>
<path d="M36.6666 11.9166H3.33331V20.25H36.6666V11.9166Z" stroke="white" stroke-width="2" stroke-linecap="round" stroke-linejoin="round"/>
<path d="M20 36.9166V11.9166" stroke="white" stroke-width="2" stroke-linecap="round" stroke-linejoin="round"/>
<path d="M20 11.9167H12.5C11.3949 11.9167 10.3351 11.4777 9.5537 10.6963C8.7723 9.91492 8.33331 8.85511 8.33331 7.75004C8.33331 6.64497 8.7723 5.58516 9.5537 4.80376C10.3351 4.02236 11.3949 3.58337 12.5 3.58337C18.3333 3.58337 20 11.9167 20 11.9167Z" stroke="white" stroke-width="2" stroke-linecap="round" stroke-linejoin="round"/>
<path d="M20 11.9167H27.5C28.6051 11.9167 29.6649 11.4777 30.4463 10.6963C31.2277 9.91492 31.6667 8.85511 31.6667 7.75004C31.6667 6.64497 31.2277 5.58516 30.4463 4.80376C29.6649 4.02236 28.6051 3.58337 27.5 3.58337C21.6667 3.58337 20 11.9167 20 11.9167Z" stroke="white" stroke-width="2" stroke-linecap="round" stroke-linejoin="round"/>
</svg>
