<svg width="40" height="41" viewBox="0 0 40 41" fill="none" xmlns="http://www.w3.org/2000/svg">
<path d="M34.7333 7.93332C33.8821 7.08166 32.8714 6.40607 31.7589 5.94513C30.6465 5.48419 29.4541 5.24695 28.25 5.24695C27.0459 5.24695 25.8535 5.48419 24.7411 5.94513C23.6286 6.40607 22.6179 7.08166 21.7667 7.93332L20 9.69999L18.2333 7.93332C16.5138 6.21384 14.1817 5.24784 11.75 5.24784C9.31827 5.24784 6.98615 6.21384 5.26666 7.93332C3.54717 9.65281 2.58118 11.9849 2.58118 14.4167C2.58118 16.8484 3.54717 19.1805 5.26666 20.9L7.03333 22.6667L20 35.6333L32.9667 22.6667L34.7333 20.9C35.585 20.0487 36.2606 19.038 36.7215 17.9256C37.1825 16.8132 37.4197 15.6208 37.4197 14.4167C37.4197 13.2125 37.1825 12.0202 36.7215 10.9077C36.2606 9.7953 35.585 8.78458 34.7333 7.93332Z" stroke="white" stroke-width="2" stroke-linecap="round" stroke-linejoin="round"/>
</svg>
